<svg xmlns="http://www.w3.org/2000/svg" width="173" height="50" viewBox="0 0 173 50" fill="none">
<g clip-path="url(#clip0)">
<path d="M54.524 25.2967C51.2014 24.4019 48.1923 23.6212 48.1923 21.0122C48.1923 18.5577 50.4197 16.8838 53.5468 16.8838C56.3993 16.8838 59.1371 17.8576 61.0915 19.9999L63.046 17.6226C60.8573 15.3258 57.769 14.0012 53.781 14.0012C48.6607 14.0012 44.8309 16.9225 44.8309 21.207C44.8309 26.3091 49.4812 27.4841 53.6647 28.5689C57.1035 29.504 60.271 30.3603 60.271 33.4763C60.271 35.4624 58.785 37.9555 54.1331 37.9555C52.5803 37.9495 51.0464 37.6166 49.6318 36.9787C48.2171 36.3407 46.9538 35.4121 45.9245 34.2537L44.0088 36.7066C46.1587 39.1208 49.4812 40.8349 54.0233 40.8349C61.0576 40.8349 63.6388 36.9721 63.6388 33.201C63.6339 27.7512 58.7866 26.4266 54.524 25.2967Z" fill="#FFFFFF"/>
<path d="M93.1397 13.8015V26.9174H77.8934V13.8015H74.6484V40.8413H77.8934V29.8049H93.1397V40.8413H96.3831V13.8015H93.1397Z" fill="#FFFFFF"/>
<path d="M109.604 13.8015V40.8413H112.849V13.8015H109.604Z" fill="#FFFFFF"/>
<path d="M143.824 16.6653V13.7827H126.11V40.8418H129.355V29.836H142.815V26.9533H129.355V16.6653H143.824Z" fill="#FFFFFF"/>
<path d="M152.235 13.7827V16.6653H160.483V40.8418H163.728V16.6653H172.012V13.7827H152.235Z" fill="#FFFFFF"/>
<path d="M10.1585 31.17C7.4267 30.7408 4.95792 29.3004 3.24527 27.1366C1.53263 24.9729 0.702192 22.2449 0.919824 19.4977C1.13746 16.7504 2.38714 14.1861 4.41927 12.3169C6.4514 10.4476 9.1164 9.4111 11.882 9.41427H20.8029L18.7596 7H22.7154L26.4191 11.3875V11.9509L22.7154 16.3368H18.7596L20.9273 13.7825H11.882C8.31232 13.7825 5.29345 16.8035 5.29345 20.3589C5.29345 23.9144 8.31232 26.9225 11.882 26.9225H13.0934V27.7015L10.1585 31.17Z" fill="#3D59FA"/>
<path d="M14.5048 21.3665C17.2717 21.7158 19.8016 23.1009 21.5812 25.2407C23.3608 27.3805 24.2568 30.1148 24.0875 32.8888C23.9182 35.6628 22.6961 38.2688 20.6693 40.1779C18.6425 42.087 15.9628 43.1563 13.1738 43.1689H0L3.70695 38.791H13.1738C16.7419 38.791 19.7607 35.7812 19.7607 32.2258C19.7607 28.6704 16.7419 25.6494 13.1738 25.6494H11.9624V24.3617L14.5048 21.3665Z" fill="#3D59FA"/>
</g>
</svg>